<svg width="29" height="27" viewBox="0 0 29 27" fill="none" xmlns="http://www.w3.org/2000/svg">
<path d="M17.0033 5.63228L16.924 5.46214C16.7588 5.10825 16.6756 4.73319 16.6754 4.35927C16.6756 3.82663 16.8433 3.29569 17.1725 2.83144C17.503 2.3654 17.9852 1.98355 18.5717 1.74898C19.1587 1.51419 19.8131 1.44234 20.4502 1.54671C21.087 1.65105 21.6638 1.92428 22.1134 2.31809L22.2732 2.45806L22.5847 2.7514V3.40226V4.28578C22.4968 3.76026 22.2332 3.28537 21.8492 2.92908C21.3764 2.49044 20.7576 2.2616 20.1339 2.2616C19.5101 2.2616 18.8914 2.49044 18.4186 2.92909M17.0033 5.63228L18.4186 2.92909M17.0033 5.63228L18.5079 8.74701H18.6377H22.5847V8.31669L21.8427 6.80348H22.5847V5.06147C22.4968 5.58699 22.2332 6.06188 21.8492 6.41816C21.3764 6.85681 20.7576 7.08565 20.1339 7.08565C19.5101 7.08565 18.8914 6.85681 18.4186 6.41816C17.942 5.976 17.6508 5.35118 17.6508 4.67362C17.6508 3.99607 17.942 3.37124 18.4186 2.92909M17.0033 5.63228L18.4186 2.92909M26.3097 15.8704C26.0606 15.293 25.7428 14.6653 25.399 13.9877C25.1859 13.5695 24.9691 13.14 24.7676 12.7206L24.738 12.659H24.59H20.6529C20.9505 12.966 21.1756 13.3149 21.3568 13.6315L21.3779 13.6655L21.3975 13.7011L21.4761 13.8443L21.4761 13.8443L21.4784 13.8484C21.6584 14.1787 21.8201 14.5169 21.9365 14.8995H22.1698L22.1439 16.425C22.1384 16.7455 22.1113 17.0629 22.0636 17.3757L22.9502 17.383C23.068 17.9685 23.1271 18.5601 23.1271 19.1566V24.7118C25.4683 23.5651 27.0085 21.2986 27.0085 18.7918C27.0085 17.7957 26.7356 16.8631 26.3097 15.8704Z" fill="white" stroke="white" stroke-width="3"/>
</svg>
