<svg width="23" height="23" viewBox="0 0 23 23" fill="none" xmlns="http://www.w3.org/2000/svg">
<path fill-rule="evenodd" clip-rule="evenodd" d="M0.530027 0.575658C0.869843 0.236954 1.33048 0.0467077 1.81075 0.0467077C2.29102 0.0467077 2.75166 0.236954 3.09148 0.575658L11.4766 8.94375L19.8617 0.575658C20.0276 0.397959 20.2277 0.25543 20.45 0.156576C20.6723 0.0577218 20.9123 0.00456629 21.1557 0.000281479C21.399 -0.00400333 21.6407 0.0406698 21.8664 0.131636C22.0921 0.222602 22.2971 0.357998 22.4692 0.529746C22.6413 0.701494 22.7769 0.906076 22.8681 1.13129C22.9592 1.3565 23.004 1.59772 22.9997 1.84057C22.9954 2.08342 22.9422 2.32292 22.8431 2.54478C22.744 2.76665 22.6012 2.96632 22.4232 3.13191L14.038 11.5L22.4232 19.8681C22.6012 20.0337 22.744 20.2334 22.8431 20.4552C22.9422 20.6771 22.9954 20.9166 22.9997 21.1594C23.004 21.4023 22.9592 21.6435 22.8681 21.8687C22.7769 22.0939 22.6413 22.2985 22.4692 22.4703C22.2971 22.642 22.0921 22.7774 21.8664 22.8684C21.6407 22.9593 21.399 23.004 21.1557 22.9997C20.9123 22.9954 20.6723 22.9423 20.45 22.8434C20.2277 22.7446 20.0276 22.602 19.8617 22.4243L11.4766 14.0562L3.09148 22.4243C2.74792 22.7438 2.29351 22.9178 1.82399 22.9095C1.35447 22.9012 0.906491 22.7114 0.574437 22.38C0.242384 22.0486 0.0521794 21.6016 0.0438953 21.133C0.0356111 20.6644 0.209894 20.211 0.530027 19.8681L8.91515 11.5L0.530027 3.13191C0.190634 2.79278 0 2.33308 0 1.85378C0 1.37448 0.190634 0.914784 0.530027 0.575658Z" fill="white"/>
</svg>
